<svg width="520" height="120" viewBox="0 0 520 120" fill="none" xmlns="http://www.w3.org/2000/svg">
<g clip-path="url(#clip0_16_42)">
<path d="M516 0H4C1.79086 0 0 1.79086 0 4V116C0 118.209 1.79086 120 4 120H516C518.209 120 520 118.209 520 116V4C520 1.79086 518.209 0 516 0Z" fill="#080808"/>
<path d="M104 16H16V104H104V16Z" stroke="#1E1E1E" stroke-width="1.5"/>
<path d="M16 30V16H30" stroke="#E8FF47" stroke-width="2.5" stroke-linecap="square"/>
<path d="M90 104H104V90" stroke="#E8FF47" stroke-width="2.5" stroke-linecap="square"/>
<path d="M67 38L97 60L67 82" stroke="url(#paint0_linear_16_42)" stroke-width="7" stroke-linecap="square"/>
<path opacity="0.9" d="M25 50H55" stroke="#E8FF47" stroke-width="2.5" stroke-linecap="square"/>
<path opacity="0.6" d="M32 60H62" stroke="#E8FF47" stroke-width="2.5" stroke-linecap="square"/>
<path opacity="0.35" d="M25 70H55" stroke="#E8FF47" stroke-width="2.5" stroke-linecap="square"/>
<path d="M135.557 57H126.276V30.8182H135.634C138.267 30.8182 140.534 31.3423 142.435 32.3906C144.335 33.4304 145.797 34.9261 146.82 36.8778C147.851 38.8295 148.366 41.1648 148.366 43.8835C148.366 46.6108 147.851 48.9545 146.82 50.9148C145.797 52.875 144.327 54.3793 142.409 55.4276C140.5 56.4759 138.216 57 135.557 57ZM131.811 52.2571H135.327C136.963 52.2571 138.339 51.9673 139.456 51.3878C140.581 50.7997 141.425 49.892 141.987 48.6648C142.558 47.429 142.844 45.8352 142.844 43.8835C142.844 41.9489 142.558 40.3679 141.987 39.1406C141.425 37.9134 140.585 37.0099 139.469 36.4304C138.352 35.8509 136.976 35.5611 135.339 35.5611H131.811V52.2571ZM152.467 57V30.8182H170.109V35.3821H158.002V41.6207H169.201V46.1847H158.002V52.4361H170.16V57H152.467ZM179.24 30.8182L185.568 50.7102H185.811L192.152 30.8182H198.288L189.263 57H182.129L173.091 30.8182H179.24Z" fill="#F0F0F0"/>
<path d="M207.276 30.8182H214.102L221.312 48.4091H221.619L228.83 30.8182H235.656V57H230.287V39.9588H230.07L223.294 56.8722H219.638L212.862 39.8949H212.645V57H207.276V30.8182ZM244.73 57H238.798L247.836 30.8182H254.97L263.995 57H258.064L251.505 36.8011H251.301L244.73 57ZM244.359 46.7088H258.37V51.0298H244.359V46.7088ZM267.147 57V30.8182H277.476C279.453 30.8182 281.141 31.1719 282.539 31.8793C283.945 32.5781 285.015 33.571 285.748 34.858C286.489 36.1364 286.86 37.6406 286.86 39.3707C286.86 41.1094 286.485 42.6051 285.735 43.858C284.985 45.1023 283.898 46.0568 282.475 46.7216C281.06 47.3864 279.347 47.7188 277.336 47.7188H270.419V43.2699H276.441C277.498 43.2699 278.375 43.125 279.074 42.8352C279.773 42.5455 280.293 42.1108 280.634 41.5312C280.983 40.9517 281.158 40.2315 281.158 39.3707C281.158 38.5014 280.983 37.7685 280.634 37.1719C280.293 36.5753 279.769 36.1236 279.061 35.8168C278.363 35.5014 277.48 35.3438 276.415 35.3438H272.682V57H267.147ZM281.286 45.0852L287.793 57H281.682L275.316 45.0852H281.286ZM295.284 57H289.353L298.391 30.8182H305.525L314.55 57H308.618L302.06 36.8011H301.855L295.284 57ZM294.914 46.7088H308.925V51.0298H294.914V46.7088ZM313.505 35.3821V30.8182H335.008V35.3821H326.992V57H321.521V35.3821H313.505ZM338.549 57V30.8182H344.085V41.6207H355.322V30.8182H360.844V57H355.322V46.1847H344.085V57H338.549ZM389.468 43.9091C389.468 46.7642 388.927 49.1932 387.844 51.196C386.771 53.1989 385.305 54.7287 383.447 55.7855C381.597 56.8338 379.518 57.358 377.208 57.358C374.881 57.358 372.793 56.8295 370.944 55.7727C369.094 54.7159 367.633 53.1861 366.559 51.1832C365.485 49.1804 364.948 46.7557 364.948 43.9091C364.948 41.054 365.485 38.625 366.559 36.6222C367.633 34.6193 369.094 33.0937 370.944 32.0455C372.793 30.9886 374.881 30.4602 377.208 30.4602C379.518 30.4602 381.597 30.9886 383.447 32.0455C385.305 33.0937 386.771 34.6193 387.844 36.6222C388.927 38.625 389.468 41.054 389.468 43.9091ZM383.856 43.9091C383.856 42.0597 383.579 40.5 383.025 39.2301C382.479 37.9602 381.708 36.9972 380.711 36.3409C379.714 35.6847 378.546 35.3565 377.208 35.3565C375.87 35.3565 374.702 35.6847 373.705 36.3409C372.708 36.9972 371.933 37.9602 371.379 39.2301C370.833 40.5 370.56 42.0597 370.56 43.9091C370.56 45.7585 370.833 47.3182 371.379 48.5881C371.933 49.858 372.708 50.821 373.705 51.4773C374.702 52.1335 375.87 52.4616 377.208 52.4616C378.546 52.4616 379.714 52.1335 380.711 51.4773C381.708 50.821 382.479 49.858 383.025 48.5881C383.579 47.3182 383.856 45.7585 383.856 43.9091ZM415.468 30.8182V57H410.686L399.296 40.5213H399.104V57H393.569V30.8182H398.426L409.728 47.2841H409.958V30.8182H415.468Z" fill="#E8FF47"/>
<path d="M124 64H490" stroke="#1E1E1E"/>
<path d="M128.858 74.5455C128.815 74.1856 128.643 73.9062 128.339 73.7074C128.036 73.5085 127.665 73.4091 127.224 73.4091C126.902 73.4091 126.621 73.4612 126.379 73.5653C126.14 73.6695 125.953 73.8127 125.818 73.995C125.686 74.1773 125.619 74.3845 125.619 74.6165C125.619 74.8106 125.665 74.9775 125.758 75.1172C125.853 75.2545 125.973 75.3693 126.12 75.4616C126.267 75.5516 126.421 75.6262 126.582 75.6854C126.743 75.7422 126.891 75.7884 127.026 75.8239L127.764 76.0227C127.954 76.0724 128.164 76.1411 128.396 76.2287C128.631 76.3163 128.854 76.4358 129.067 76.5874C129.283 76.7365 129.46 76.9283 129.6 77.1626C129.74 77.397 129.81 77.6847 129.81 78.0256C129.81 78.4186 129.707 78.7737 129.501 79.0909C129.297 79.4081 128.999 79.6603 128.606 79.8473C128.215 80.0343 127.741 80.1278 127.182 80.1278C126.661 80.1278 126.21 80.0438 125.829 79.8757C125.45 79.7076 125.152 79.4732 124.934 79.1726C124.719 78.8719 124.597 78.5227 124.568 78.125H125.477C125.501 78.3996 125.593 78.6269 125.754 78.8068C125.918 78.9844 126.124 79.117 126.372 79.2045C126.623 79.2898 126.893 79.3324 127.182 79.3324C127.518 79.3324 127.82 79.2779 128.087 79.169C128.355 79.0578 128.567 78.9039 128.723 78.7074C128.879 78.5085 128.957 78.2765 128.957 78.0114C128.957 77.7699 128.89 77.5734 128.755 77.4219C128.62 77.2704 128.442 77.1473 128.222 77.0526C128.002 76.9579 127.764 76.875 127.509 76.804L126.614 76.5483C126.045 76.3849 125.596 76.1518 125.264 75.8487C124.933 75.5457 124.767 75.1491 124.767 74.6591C124.767 74.2519 124.877 73.8968 125.097 73.5938C125.32 73.2884 125.618 73.0516 125.992 72.8835C126.369 72.7131 126.789 72.6278 127.253 72.6278C127.722 72.6278 128.138 72.7119 128.503 72.88C128.867 73.0457 129.156 73.273 129.369 73.5618C129.585 73.8506 129.698 74.1785 129.71 74.5455H128.858ZM131.258 80V72.7273H132.138V75.9659H136.016V72.7273H136.897V80H136.016V76.7472H132.138V80H131.258ZM139.541 72.7273V80H138.66V72.7273H139.541ZM141.306 80V72.7273H143.764C144.334 72.7273 144.801 72.8303 145.163 73.0362C145.528 73.2398 145.797 73.5156 145.973 73.8636C146.148 74.2116 146.235 74.5999 146.235 75.0284C146.235 75.4569 146.148 75.8464 145.973 76.1967C145.8 76.5471 145.532 76.8265 145.17 77.0348C144.808 77.2408 144.344 77.3438 143.778 77.3438H142.017V76.5625H143.75C144.14 76.5625 144.454 76.495 144.691 76.3601C144.927 76.2251 145.099 76.0429 145.206 75.8132C145.315 75.5812 145.369 75.3196 145.369 75.0284C145.369 74.7372 145.315 74.4768 145.206 74.2472C145.099 74.0175 144.926 73.8376 144.687 73.7074C144.448 73.5748 144.131 73.5085 143.735 73.5085H142.187V80H141.306ZM150.467 80V72.7273H152.924C153.492 72.7273 153.959 72.8243 154.323 73.0185C154.688 73.2102 154.958 73.4742 155.133 73.8104C155.308 74.1465 155.396 74.5289 155.396 74.9574C155.396 75.3859 155.308 75.7659 155.133 76.0973C154.958 76.4287 154.689 76.6892 154.327 76.8786C153.964 77.0656 153.502 77.1591 152.938 77.1591H150.95V76.3636H152.91C153.298 76.3636 153.611 76.3068 153.847 76.1932C154.086 76.0795 154.259 75.9186 154.366 75.7102C154.475 75.4995 154.529 75.2486 154.529 74.9574C154.529 74.6662 154.475 74.4117 154.366 74.1939C154.257 73.9761 154.083 73.808 153.844 73.6896C153.605 73.5689 153.289 73.5085 152.896 73.5085H151.347V80H150.467ZM153.89 76.733L155.68 80H154.657L152.896 76.733H153.89ZM156.863 80V72.7273H161.252V73.5085H157.744V75.9659H161.025V76.7472H157.744V79.2188H161.309V80H156.863ZM163.138 80H162.215L164.885 72.7273H165.794L168.465 80H167.541L165.368 73.8778H165.311L163.138 80ZM163.479 77.1591H167.2V77.9403H163.479V77.1591ZM169.597 80V72.7273H170.478V79.2188H173.859V80H169.597ZM178.035 80V72.7273H180.492C181.063 72.7273 181.529 72.8303 181.892 73.0362C182.256 73.2398 182.526 73.5156 182.701 73.8636C182.876 74.2116 182.964 74.5999 182.964 75.0284C182.964 75.4569 182.876 75.8464 182.701 76.1967C182.528 76.5471 182.261 76.8265 181.899 77.0348C181.536 77.2408 181.072 77.3438 180.507 77.3438H178.745V76.5625H180.478C180.869 76.5625 181.182 76.495 181.419 76.3601C181.656 76.2251 181.828 76.0429 181.934 75.8132C182.043 75.5812 182.097 75.3196 182.097 75.0284C182.097 74.7372 182.043 74.4768 181.934 74.2472C181.828 74.0175 181.655 73.8376 181.416 73.7074C181.177 73.5748 180.859 73.5085 180.464 73.5085H178.916V80H178.035ZM184.383 80V72.7273H186.84C187.408 72.7273 187.875 72.8243 188.239 73.0185C188.604 73.2102 188.874 73.4742 189.049 73.8104C189.224 74.1465 189.312 74.5289 189.312 74.9574C189.312 75.3859 189.224 75.7659 189.049 76.0973C188.874 76.4287 188.605 76.6892 188.243 76.8786C187.881 77.0656 187.418 77.1591 186.854 77.1591H184.866V76.3636H186.826C187.214 76.3636 187.527 76.3068 187.763 76.1932C188.002 76.0795 188.175 75.9186 188.282 75.7102C188.391 75.4995 188.445 75.2486 188.445 74.9574C188.445 74.6662 188.391 74.4117 188.282 74.1939C188.173 73.9761 187.999 73.808 187.76 73.6896C187.521 73.5689 187.205 73.5085 186.812 73.5085H185.263V80H184.383ZM187.806 76.733L189.596 80H188.573L186.812 76.733H187.806ZM196.915 76.3636C196.915 77.1307 196.777 77.7936 196.5 78.3523C196.223 78.911 195.843 79.3419 195.36 79.6449C194.877 79.9479 194.326 80.0994 193.705 80.0994C193.085 80.0994 192.533 79.9479 192.05 79.6449C191.567 79.3419 191.188 78.911 190.911 78.3523C190.634 77.7936 190.495 77.1307 190.495 76.3636C190.495 75.5966 190.634 74.9337 190.911 74.375C191.188 73.8163 191.567 73.3854 192.05 73.0824C192.533 72.7794 193.085 72.6278 193.705 72.6278C194.326 72.6278 194.877 72.7794 195.36 73.0824C195.843 73.3854 196.223 73.8163 196.5 74.375C196.777 74.9337 196.915 75.5966 196.915 76.3636ZM196.063 76.3636C196.063 75.7339 195.958 75.2024 195.747 74.7692C195.539 74.3359 195.256 74.008 194.898 73.7855C194.543 73.563 194.146 73.4517 193.705 73.4517C193.265 73.4517 192.866 73.563 192.509 73.7855C192.153 74.008 191.871 74.3359 191.66 74.7692C191.451 75.2024 191.347 75.7339 191.347 76.3636C191.347 76.9934 191.451 77.5249 191.66 77.9581C191.871 78.3913 192.153 78.7192 192.509 78.9418C192.866 79.1643 193.265 79.2756 193.705 79.2756C194.146 79.2756 194.543 79.1643 194.898 78.9418C195.256 78.7192 195.539 78.3913 195.747 77.9581C195.958 77.5249 196.063 76.9934 196.063 76.3636ZM200.641 80H198.396V72.7273H200.74C201.446 72.7273 202.049 72.8729 202.551 73.1641C203.053 73.4529 203.438 73.8684 203.705 74.4105C203.973 74.9503 204.107 75.5966 204.107 76.3494C204.107 77.107 203.972 77.7592 203.702 78.3061C203.432 78.8506 203.039 79.2696 202.523 79.5632C202.007 79.8544 201.379 80 200.641 80ZM199.277 79.2188H200.584C201.185 79.2188 201.683 79.1027 202.079 78.8707C202.474 78.6387 202.769 78.3085 202.963 77.88C203.157 77.4515 203.254 76.9413 203.254 76.3494C203.254 75.7623 203.158 75.2569 202.967 74.8331C202.775 74.407 202.488 74.0803 202.107 73.853C201.726 73.6233 201.251 73.5085 200.683 73.5085H199.277V79.2188ZM210.357 72.7273H211.237V77.5426C211.237 78.0398 211.12 78.4837 210.886 78.8743C210.654 79.2625 210.326 79.5691 209.902 79.794C209.478 80.0166 208.981 80.1278 208.411 80.1278C207.84 80.1278 207.343 80.0166 206.919 79.794C206.495 79.5691 206.166 79.2625 205.932 78.8743C205.7 78.4837 205.584 78.0398 205.584 77.5426V72.7273H206.464V77.4716C206.464 77.8267 206.543 78.1428 206.699 78.4197C206.855 78.6944 207.078 78.911 207.366 79.0696C207.658 79.2259 208.006 79.304 208.411 79.304C208.815 79.304 209.163 79.2259 209.455 79.0696C209.746 78.911 209.968 78.6944 210.122 78.4197C210.278 78.1428 210.357 77.8267 210.357 77.4716V72.7273ZM218.848 75H217.968C217.915 74.7467 217.824 74.5241 217.694 74.3324C217.566 74.1406 217.41 73.9796 217.225 73.8494C217.043 73.7169 216.841 73.6174 216.618 73.5511C216.396 73.4848 216.164 73.4517 215.922 73.4517C215.482 73.4517 215.083 73.563 214.725 73.7855C214.37 74.008 214.087 74.3359 213.877 74.7692C213.668 75.2024 213.564 75.7339 213.564 76.3636C213.564 76.9934 213.668 77.5249 213.877 77.9581C214.087 78.3913 214.37 78.7192 214.725 78.9418C215.083 79.1643 215.482 79.2756 215.922 79.2756C216.164 79.2756 216.396 79.2424 216.618 79.1761C216.841 79.1098 217.043 79.0116 217.225 78.8814C217.41 78.7488 217.566 78.5866 217.694 78.3949C217.824 78.2008 217.915 77.9782 217.968 77.7273H218.848C218.782 78.099 218.661 78.4316 218.486 78.7251C218.311 79.0187 218.093 79.2685 217.833 79.4744C217.572 79.678 217.28 79.8331 216.955 79.9396C216.633 80.0462 216.289 80.0994 215.922 80.0994C215.302 80.0994 214.75 79.9479 214.267 79.6449C213.784 79.3419 213.404 78.911 213.127 78.3523C212.85 77.7936 212.712 77.1307 212.712 76.3636C212.712 75.5966 212.85 74.9337 213.127 74.375C213.404 73.8163 213.784 73.3854 214.267 73.0824C214.75 72.7794 215.302 72.6278 215.922 72.6278C216.289 72.6278 216.633 72.6811 216.955 72.7876C217.28 72.8942 217.572 73.0504 217.833 73.2564C218.093 73.46 218.311 73.7086 218.486 74.0021C218.661 74.2933 218.782 74.6259 218.848 75ZM219.874 73.5085V72.7273H225.328V73.5085H223.041V80H222.161V73.5085H219.874ZM230.665 74.5455C230.622 74.1856 230.449 73.9062 230.146 73.7074C229.843 73.5085 229.471 73.4091 229.031 73.4091C228.709 73.4091 228.427 73.4612 228.186 73.5653C227.947 73.6695 227.76 73.8127 227.625 73.995C227.492 74.1773 227.426 74.3845 227.426 74.6165C227.426 74.8106 227.472 74.9775 227.564 75.1172C227.659 75.2545 227.78 75.3693 227.927 75.4616C228.073 75.5516 228.227 75.6262 228.388 75.6854C228.549 75.7422 228.697 75.7884 228.832 75.8239L229.571 76.0227C229.76 76.0724 229.971 76.1411 230.203 76.2287C230.437 76.3163 230.661 76.4358 230.874 76.5874C231.09 76.7365 231.267 76.9283 231.407 77.1626C231.546 77.397 231.616 77.6847 231.616 78.0256C231.616 78.4186 231.513 78.7737 231.307 79.0909C231.104 79.4081 230.805 79.6603 230.412 79.8473C230.022 80.0343 229.547 80.1278 228.988 80.1278C228.468 80.1278 228.017 80.0438 227.635 79.8757C227.257 79.7076 226.958 79.4732 226.741 79.1726C226.525 78.8719 226.403 78.5227 226.375 78.125H227.284C227.308 78.3996 227.4 78.6269 227.561 78.8068C227.724 78.9844 227.93 79.117 228.179 79.2045C228.43 79.2898 228.7 79.3324 228.988 79.3324C229.325 79.3324 229.626 79.2779 229.894 79.169C230.162 79.0578 230.373 78.9039 230.53 78.7074C230.686 78.5085 230.764 78.2765 230.764 78.0114C230.764 77.7699 230.697 77.5734 230.562 77.4219C230.427 77.2704 230.249 77.1473 230.029 77.0526C229.809 76.9579 229.571 76.875 229.315 76.804L228.42 76.5483C227.852 76.3849 227.402 76.1518 227.071 75.8487C226.739 75.5457 226.574 75.1491 226.574 74.6591C226.574 74.2519 226.684 73.8968 226.904 73.5938C227.126 73.2884 227.425 73.0516 227.799 72.8835C228.175 72.7131 228.595 72.6278 229.059 72.6278C229.528 72.6278 229.945 72.7119 230.309 72.88C230.674 73.0457 230.963 73.273 231.176 73.5618C231.391 73.8506 231.505 74.1785 231.517 74.5455H230.665ZM237.198 80L235.209 72.7273H236.104L237.624 78.6506H237.695L239.243 72.7273H240.238L241.786 78.6506H241.857L243.377 72.7273H244.272L242.283 80H241.374L239.769 74.2045H239.712L238.107 80H237.198ZM246.25 72.7273V80H245.369V72.7273H246.25ZM247.618 73.5085V72.7273H253.072V73.5085H250.785V80H249.905V73.5085H247.618ZM254.431 80V72.7273H255.312V75.9659H259.19V72.7273H260.071V80H259.19V76.7472H255.312V80H254.431ZM264.945 80H264.021L266.692 72.7273H267.601L270.271 80H269.348L267.175 73.8778H267.118L264.945 80ZM265.286 77.1591H269.007V77.9403H265.286V77.1591ZM272.285 72.7273V80H271.404V72.7273H272.285Z" fill="#A7A7A7"/>
</g>
<defs>
<linearGradient id="paint0_linear_16_42" x1="67" y1="38" x2="4162.91" y2="2830.67" gradientUnits="userSpaceOnUse">
<stop stop-color="#E8FF47"/>
<stop offset="1" stop-color="#C8E600"/>
</linearGradient>
<clipPath id="clip0_16_42">
<rect width="520" height="120" fill="white"/>
</clipPath>
</defs>
</svg>
